<?xml version="1.0" standalone="no"?>
<!DOCTYPE svg PUBLIC "-//W3C//DTD SVG 20010904//EN"
 "http://www.w3.org/TR/2001/REC-SVG-20010904/DTD/svg10.dtd">
<svg version="1.0" xmlns="http://www.w3.org/2000/svg"
 width="105.000000pt" height="105.000000pt" viewBox="0 0 105.000000 105.000000"
 preserveAspectRatio="xMidYMid meet">

<g transform="translate(0.000000,105.000000) scale(0.100000,-0.100000)"
fill="#000000" stroke="none">
<path d="M510 1042 c-8 -2 -39 -27 -68 -55 l-52 -51 57 -58 c43 -43 64 -58 86
-58 36 0 77 -40 77 -77 0 -39 103 -143 143 -143 37 0 77 -40 77 -78 0 -61 -74
-102 -129 -72 -22 11 -45 64 -38 84 3 8 -15 34 -44 62 l-49 48 0 -133 c0 -118
2 -136 20 -158 27 -35 26 -78 -5 -108 -45 -46 -116 -26 -138 38 -8 21 17 87
32 87 7 0 11 52 11 150 0 91 -4 150 -10 150 -15 0 -42 59 -36 78 4 12 -12 35
-52 75 l-57 57 -164 -164 c-132 -132 -164 -169 -164 -191 0 -22 45 -72 246
-272 201 -201 249 -245 272 -245 23 0 71 44 272 245 201 200 246 249 245 272
0 22 -43 71 -242 270 -134 134 -251 245 -259 248 -9 2 -23 2 -31 -1z"/>
</g>
</svg>
