<?xml version="1.0" standalone="no"?>
<!DOCTYPE svg PUBLIC "-//W3C//DTD SVG 20010904//EN"
 "http://www.w3.org/TR/2001/REC-SVG-20010904/DTD/svg10.dtd">
<svg version="1.0" xmlns="http://www.w3.org/2000/svg"
 width="105.000000pt" height="100.000000pt" viewBox="0 0 105.000000 100.000000"
 preserveAspectRatio="xMidYMid meet">

<g transform="translate(0.000000,100.000000) scale(0.100000,-0.100000)"
fill="#000000" stroke="none">
<path d="M463 989 c-54 -10 -76 -22 -130 -72 -125 -115 -154 -340 -69 -531 14
-32 26 -75 26 -96 0 -45 27 -73 72 -73 36 0 68 32 68 69 0 38 -46 74 -76 62
-9 -4 -31 40 -56 112 -17 50 -23 87 -23 161 0 91 2 100 37 170 42 82 85 120
160 140 62 17 112 5 159 -38 45 -41 73 -88 89 -156 9 -32 18 -47 33 -51 35 -9
36 -8 30 32 -28 181 -167 299 -320 271z"/>
<path d="M412 673 c-32 -27 -37 -64 -12 -96 26 -33 71 -36 100 -7 38 38 169
21 284 -37 110 -56 206 -185 206 -277 0 -133 -144 -225 -284 -182 -45 14 -51
13 -72 -2 -13 -9 -24 -20 -24 -24 0 -13 102 -38 155 -38 80 0 151 26 202 73
57 53 74 92 74 173 0 193 -204 370 -450 391 -53 4 -80 12 -93 25 -23 23 -60
23 -86 1z"/>
<path d="M95 479 c-58 -65 -89 -141 -88 -219 1 -137 75 -217 223 -241 127 -20
296 46 401 159 33 35 68 79 77 98 8 19 21 34 27 34 19 0 55 45 55 69 0 29 -43
71 -73 71 -48 0 -82 -64 -57 -110 16 -30 -63 -127 -150 -185 -172 -114 -346
-111 -423 8 -53 81 -30 203 51 280 21 20 28 35 24 52 -6 35 -24 31 -67 -16z"/>
</g>
</svg>
